<?xml version="1.0" encoding="UTF-8" standalone="no"?>
<svg width="168px" height="65px" viewBox="0 0 168 65" version="1.1" xmlns="http://www.w3.org/2000/svg" xmlns:xlink="http://www.w3.org/1999/xlink">
    <!-- Generator: Sketch 43.2 (39069) - http://www.bohemiancoding.com/sketch -->
    <title>boarding-rear</title>
    <desc>Created with Sketch.</desc>
    <defs></defs>
    <g id="Page-1" stroke="none" stroke-width="1" fill="none" fill-rule="evenodd">
        <g id="boarding-rear" fill-rule="nonzero">
            <path d="M108,64 L109,64 L109,63.5 L108,63.5 L108,64 Z M111,64 L113,64 L113,63.5 L111,63.5 L111,64 Z M115,64 L117,64 L117,63.5 L115,63.5 L115,64 Z M119,64 L121,64 L121,63.5 L119,63.5 L119,64 Z M123,64 L125,64 L125,63.5 L123,63.5 L123,64 Z M127,64 L129,64 L129,63.5 L127,63.5 L127,64 Z M131,64 L133,64 L133,63.5 L131,63.5 L131,64 Z M135,64 L137,64 L137,63.5 L135,63.5 L135,64 Z M139,64 L141,64 L141,63.5 L139,63.5 L139,64 Z M143,64 L145,64 L145,63.5 L143,63.5 L143,64 Z M147,64 L149,64 L149,63.5 L147,63.5 L147,64 Z M151,64 L153,64 L153,63.5 L151,63.5 L151,64 Z M155,64 L157,64 L157,63.5 L155,63.5 L155,64 Z M159,64 L161,64 L161,63.5 L159,63.5 L159,64 Z M163,64 L165,64 L165,63.5 L163,63.5 L163,64 Z M167,64 L168,64 L168,63.5 L167,63.5 L167,64 Z" id="path2_stroke" fill="#C6007E" transform="translate(138.000000, 64.000000) rotate(180.000000) translate(-138.000000, -64.000000) "></path>
            <path d="M92.5,48.5 L93.46875,48.5 L93.46875,48 L92.5,48 L92.5,48.5 Z M95.40625,48.5 L97.34375,48.5 L97.34375,48 L95.40625,48 L95.40625,48.5 Z M99.28125,48.5 L101.21875,48.5 L101.21875,48 L99.28125,48 L99.28125,48.5 Z M103.1562,48.5 L105.0938,48.5 L105.0938,48 L103.1562,48 L103.1562,48.5 Z M107.0312,48.5 L108.9688,48.5 L108.9688,48 L107.0312,48 L107.0312,48.5 Z M110.9062,48.5 L112.8438,48.5 L112.8438,48 L110.9062,48 L110.9062,48.5 Z M114.7812,48.5 L116.7188,48.5 L116.7188,48 L114.7812,48 L114.7812,48.5 Z M118.6562,48.5 L120.5938,48.5 L120.5938,48 L118.6562,48 L118.6562,48.5 Z M122.5312,48.5 L123.5,48.5 L123.5,48 L122.5312,48 L122.5312,48.5 Z" id="path3_stroke" fill="#C6007E" transform="translate(108.000000, 48.500000) rotate(90.000000) translate(-108.000000, -48.500000) "></path>
            <path d="M133.201,0.0962849 L127.831,22.8184 C127.831,22.8184 133.731,23.2805 136,24.3589 L136,26.5926 C136,26.5926 105.971,36.2976 89.3304,36.8368 C84.1197,37.0056 74.8597,37.0687 64.5971,37.0757 L64.865,39.3946 C65.9915,39.53 66.8654,40.5057 66.8654,41.6893 C66.8654,42.9655 65.8495,44 64.5962,44 C63.343,44 62.327,42.9655 62.327,41.6893 C62.327,40.7791 62.8438,39.9919 63.5948,39.6151 C63.449,39.1998 63.1884,38.6474 62.8565,38.4543 C62.6149,38.3137 62.1685,38.2693 61.7329,38.226 C61.2141,38.1745 60.7107,38.1245 60.5873,37.9151 C60.4685,37.7135 60.4296,37.3689 60.424,37.0757 C59.8246,37.0753 59.2234,37.0747 58.6207,37.074 L58.6207,38.6854 L52.7208,39.7637 L52.7208,40.3799 C52.7208,40.3799 48.4094,41.8433 44.8543,41.7663 C41.2992,41.6893 40.3915,40.765 40.3915,40.765 C40.3915,40.765 40.2007,38.8455 40.0333,37.0126 C31.7909,36.9709 24.5015,36.9174 19.8932,36.8805 L19.8932,38.4543 L19.515,39.0705 L19.515,40.3028 L19.2125,41.0731 C19.5799,41.3541 19.8176,41.8015 19.8176,42.3055 C19.8176,43.1563 19.1403,43.846 18.3048,43.846 C17.4693,43.846 16.792,43.1563 16.792,42.3055 C16.792,41.4805 17.4288,40.807 18.2292,40.7669 L18.2292,40.0718 L17.3971,39.8407 L17.3971,39.5326 L18.2292,39.3015 L18.2292,38.4543 L17.232,36.8586 C15.6402,36.8451 14.7497,36.8368 14.7497,36.8368 C14.7497,36.8368 -6.03961325e-14,36.1436 -6.03961325e-14,31.9843 C-6.03961325e-14,30.2525 2.79868,28.133 4.99222,27.6709 C8.69855,21.9711 18.9099,21.8941 18.9099,21.8941 L83.2505,21.8941 C85.0529,19.8074 86.7586,17.7348 86.7586,17.7348 L88.2714,17.5037 C88.2714,17.5037 87.2046,19.6409 86.038,21.8941 L104.685,21.8941 C108.24,21.8941 113.006,15.8092 113.006,15.8092 C113.006,15.8092 125.146,1.25165 126.091,0.481401 C127.037,-0.288847 133.201,0.0962849 133.201,0.0962849 Z" id="path4_fill" fill="#D7D7D7"></path>
            <path d="M52.115307,25.36 C51.572247,25.36 51.132,25.800247 51.132,26.343322 L51.132,28.22789 C51.132,28.77096 51.572247,29.2112 52.115307,29.2112 C52.6584,29.2112 53.09864,28.77096 53.09864,28.22789 L53.09864,26.343322 C53.09864,25.800247 52.6584,25.36 52.115307,25.36 Z M55.14088,25.36 C54.59782,25.36 54.15757,25.800247 54.15757,26.343322 L54.15757,28.22789 C54.15757,28.77096 54.59782,29.2112 55.14088,29.2112 C55.68397,29.2112 56.12422,28.77096 56.12422,28.22789 L56.12422,26.343322 C56.12422,25.800247 55.68397,25.36 55.14088,25.36 Z" id="path5_fill" fill="#FFFFFF"></path>
            <path d="M22.38895,26.977217 C22.38895,27.36007 22.151899,27.67043 21.859477,27.67043 C21.567055,27.67043 21.33,27.36007 21.33,26.977217 C21.33,26.594364 21.567055,26.284 21.859477,26.284 C22.151899,26.284 22.38895,26.594364 22.38895,26.977217 Z" id="path6_fill" fill="#FFFFFF"></path>
            <path d="M24.35595,26.977217 C24.35595,27.36007 24.118899,27.67043 23.826477,27.67043 C23.534055,27.67043 23.297,27.36007 23.297,26.977217 C23.297,26.594364 23.534055,26.284 23.826477,26.284 C24.118899,26.284 24.35595,26.594364 24.35595,26.977217 Z" id="path6_fill" fill="#FFFFFF"></path>
            <path d="M26.32295,26.977217 C26.32295,27.36007 26.085899,27.67043 25.793477,27.67043 C25.501055,27.67043 25.264,27.36007 25.264,26.977217 C25.264,26.594364 25.501055,26.284 25.793477,26.284 C26.085899,26.284 26.32295,26.594364 26.32295,26.977217 Z" id="path6_fill" fill="#FFFFFF"></path>
            <path d="M28.28895,26.977217 C28.28895,27.36007 28.051899,27.67043 27.759477,27.67043 C27.467055,27.67043 27.23,27.36007 27.23,26.977217 C27.23,26.594364 27.467055,26.284 27.759477,26.284 C28.051899,26.284 28.28895,26.594364 28.28895,26.977217 Z" id="path6_fill" fill="#FFFFFF"></path>
            <path d="M30.10495,26.977217 C30.10495,27.36007 29.867899,27.67043 29.575477,27.67043 C29.283055,27.67043 29.046,27.36007 29.046,26.977217 C29.046,26.594364 29.283055,26.284 29.575477,26.284 C29.867899,26.284 30.10495,26.594364 30.10495,26.977217 Z" id="path6_fill" fill="#FFFFFF"></path>
            <path d="M32.07095,26.977217 C32.07095,27.36007 31.833899,27.67043 31.541477,27.67043 C31.249055,27.67043 31.012,27.36007 31.012,26.977217 C31.012,26.594364 31.249055,26.284 31.541477,26.284 C31.833899,26.284 32.07095,26.594364 32.07095,26.977217 Z" id="path6_fill" fill="#FFFFFF"></path>
            <path d="M34.03795,26.977217 C34.03795,27.36007 33.800899,27.67043 33.508477,27.67043 C33.216055,27.67043 32.979,27.36007 32.979,26.977217 C32.979,26.594364 33.216055,26.284 33.508477,26.284 C33.800899,26.284 34.03795,26.594364 34.03795,26.977217 Z" id="path6_fill" fill="#FFFFFF"></path>
            <path d="M36.00395,26.977217 C36.00395,27.36007 35.766899,27.67043 35.474477,27.67043 C35.182055,27.67043 34.945,27.36007 34.945,26.977217 C34.945,26.594364 35.182055,26.284 35.474477,26.284 C35.766899,26.284 36.00395,26.594364 36.00395,26.977217 Z" id="path6_fill" fill="#FFFFFF"></path>
            <path d="M37.97095,26.977217 C37.97095,27.36007 37.733899,27.67043 37.441477,27.67043 C37.149055,27.67043 36.912,27.36007 36.912,26.977217 C36.912,26.594364 37.149055,26.284 37.441477,26.284 C37.733899,26.284 37.97095,26.594364 37.97095,26.977217 Z" id="path6_fill" fill="#FFFFFF"></path>
            <path d="M39.93795,26.977217 C39.93795,27.36007 39.700899,27.67043 39.408477,27.67043 C39.116055,27.67043 38.879,27.36007 38.879,26.977217 C38.879,26.594364 39.116055,26.284 39.408477,26.284 C39.700899,26.284 39.93795,26.594364 39.93795,26.977217 Z" id="path6_fill" fill="#FFFFFF"></path>
            <path d="M41.90395,26.977217 C41.90395,27.36007 41.666899,27.67043 41.374477,27.67043 C41.082055,27.67043 40.845,27.36007 40.845,26.977217 C40.845,26.594364 41.082055,26.284 41.374477,26.284 C41.666899,26.284 41.90395,26.594364 41.90395,26.977217 Z" id="path6_fill" fill="#FFFFFF"></path>
            <path d="M43.87095,26.977217 C43.87095,27.36007 43.633899,27.67043 43.341477,27.67043 C43.049055,27.67043 42.812,27.36007 42.812,26.977217 C42.812,26.594364 43.049055,26.284 43.341477,26.284 C43.633899,26.284 43.87095,26.594364 43.87095,26.977217 Z" id="path6_fill" fill="#FFFFFF"></path>
            <path d="M45.68595,26.977217 C45.68595,27.36007 45.448899,27.67043 45.156477,27.67043 C44.864055,27.67043 44.627,27.36007 44.627,26.977217 C44.627,26.594364 44.864055,26.284 45.156477,26.284 C45.448899,26.284 45.68595,26.594364 45.68595,26.977217 Z" id="path6_fill" fill="#FFFFFF"></path>
            <path d="M47.65295,26.977217 C47.65295,27.36007 47.415899,27.67043 47.123477,27.67043 C46.831055,27.67043 46.594,27.36007 46.594,26.977217 C46.594,26.594364 46.831055,26.284 47.123477,26.284 C47.415899,26.284 47.65295,26.594364 47.65295,26.977217 Z" id="path6_fill" fill="#FFFFFF"></path>
            <path d="M49.61995,26.977217 C49.61995,27.36007 49.382899,27.67043 49.090477,27.67043 C48.798055,27.67043 48.561,27.36007 48.561,26.977217 C48.561,26.594364 48.798055,26.284 49.090477,26.284 C49.382899,26.284 49.61995,26.594364 49.61995,26.977217 Z" id="path6_fill" fill="#FFFFFF"></path>
            <path d="M57.93995,26.977217 C57.93995,27.36007 57.702899,27.67043 57.410477,27.67043 C57.118055,27.67043 56.881,27.36007 56.881,26.977217 C56.881,26.594364 57.118055,26.284 57.410477,26.284 C57.702899,26.284 57.93995,26.594364 57.93995,26.977217 Z" id="path6_fill" fill="#FFFFFF"></path>
            <path d="M59.90695,26.977217 C59.90695,27.36007 59.669899,27.67043 59.377477,27.67043 C59.085055,27.67043 58.848,27.36007 58.848,26.977217 C58.848,26.594364 59.085055,26.284 59.377477,26.284 C59.669899,26.284 59.90695,26.594364 59.90695,26.977217 Z" id="path6_fill" fill="#FFFFFF"></path>
            <path d="M61.87295,26.977217 C61.87295,27.36007 61.635899,27.67043 61.343477,27.67043 C61.051055,27.67043 60.814,27.36007 60.814,26.977217 C60.814,26.594364 61.051055,26.284 61.343477,26.284 C61.635899,26.284 61.87295,26.594364 61.87295,26.977217 Z" id="path6_fill" fill="#FFFFFF"></path>
            <path d="M63.83995,26.977217 C63.83995,27.36007 63.602899,27.67043 63.310477,27.67043 C63.018055,27.67043 62.781,27.36007 62.781,26.977217 C62.781,26.594364 63.018055,26.284 63.310477,26.284 C63.602899,26.284 63.83995,26.594364 63.83995,26.977217 Z" id="path6_fill" fill="#FFFFFF"></path>
            <path d="M65.65495,26.977217 C65.65495,27.36007 65.417899,27.67043 65.125477,27.67043 C64.833055,27.67043 64.596,27.36007 64.596,26.977217 C64.596,26.594364 64.833055,26.284 65.125477,26.284 C65.417899,26.284 65.65495,26.594364 65.65495,26.977217 Z" id="path6_fill" fill="#FFFFFF"></path>
            <path d="M67.62195,26.977217 C67.62195,27.36007 67.384899,27.67043 67.092477,27.67043 C66.800055,27.67043 66.563,27.36007 66.563,26.977217 C66.563,26.594364 66.800055,26.284 67.092477,26.284 C67.384899,26.284 67.62195,26.594364 67.62195,26.977217 Z" id="path6_fill" fill="#FFFFFF"></path>
            <path d="M69.58795,26.977217 C69.58795,27.36007 69.350899,27.67043 69.058477,27.67043 C68.766055,27.67043 68.529,27.36007 68.529,26.977217 C68.529,26.594364 68.766055,26.284 69.058477,26.284 C69.350899,26.284 69.58795,26.594364 69.58795,26.977217 Z" id="path6_fill" fill="#FFFFFF"></path>
            <path d="M71.55495,26.977217 C71.55495,27.36007 71.317899,27.67043 71.025477,27.67043 C70.733055,27.67043 70.496,27.36007 70.496,26.977217 C70.496,26.594364 70.733055,26.284 71.025477,26.284 C71.317899,26.284 71.55495,26.594364 71.55495,26.977217 Z" id="path6_fill" fill="#FFFFFF"></path>
            <path d="M73.52195,26.977217 C73.52195,27.36007 73.284899,27.67043 72.992477,27.67043 C72.700055,27.67043 72.463,27.36007 72.463,26.977217 C72.463,26.594364 72.700055,26.284 72.992477,26.284 C73.284899,26.284 73.52195,26.594364 73.52195,26.977217 Z" id="path6_fill" fill="#FFFFFF"></path>
            <path d="M75.48795,26.977217 C75.48795,27.36007 75.250899,27.67043 74.958477,27.67043 C74.666055,27.67043 74.429,27.36007 74.429,26.977217 C74.429,26.594364 74.666055,26.284 74.958477,26.284 C75.250899,26.284 75.48795,26.594364 75.48795,26.977217 Z" id="path6_fill" fill="#FFFFFF"></path>
            <path d="M77.45495,26.977217 C77.45495,27.36007 77.217899,27.67043 76.925477,27.67043 C76.633055,27.67043 76.396,27.36007 76.396,26.977217 C76.396,26.594364 76.633055,26.284 76.925477,26.284 C77.217899,26.284 77.45495,26.594364 77.45495,26.977217 Z" id="path6_fill" fill="#FFFFFF"></path>
            <path d="M79.42195,26.977217 C79.42195,27.36007 79.184899,27.67043 78.892477,27.67043 C78.600055,27.67043 78.363,27.36007 78.363,26.977217 C78.363,26.594364 78.600055,26.284 78.892477,26.284 C79.184899,26.284 79.42195,26.594364 79.42195,26.977217 Z" id="path6_fill" fill="#FFFFFF"></path>
            <path d="M81.23695,26.977217 C81.23695,27.36007 80.999899,27.67043 80.707477,27.67043 C80.415055,27.67043 80.178,27.36007 80.178,26.977217 C80.178,26.594364 80.415055,26.284 80.707477,26.284 C80.999899,26.284 81.23695,26.594364 81.23695,26.977217 Z" id="path6_fill" fill="#FFFFFF"></path>
            <path d="M83.20395,26.977217 C83.20395,27.36007 82.966899,27.67043 82.674477,27.67043 C82.382055,27.67043 82.145,27.36007 82.145,26.977217 C82.145,26.594364 82.382055,26.284 82.674477,26.284 C82.966899,26.284 83.20395,26.594364 83.20395,26.977217 Z" id="path6_fill" fill="#FFFFFF"></path>
            <path d="M85.16995,26.977217 C85.16995,27.36007 84.932899,27.67043 84.640477,27.67043 C84.348055,27.67043 84.111,27.36007 84.111,26.977217 C84.111,26.594364 84.348055,26.284 84.640477,26.284 C84.932899,26.284 85.16995,26.594364 85.16995,26.977217 Z" id="path6_fill" fill="#FFFFFF"></path>
            <path d="M87.28795,26.977217 C87.28795,27.36007 87.050899,27.67043 86.758477,27.67043 C86.466055,27.67043 86.229,27.36007 86.229,26.977217 C86.229,26.594364 86.466055,26.284 86.758477,26.284 C87.050899,26.284 87.28795,26.594364 87.28795,26.977217 Z" id="path6_fill" fill="#FFFFFF"></path>
            <path d="M89.25495,26.977217 C89.25495,27.36007 89.017899,27.67043 88.725477,27.67043 C88.433055,27.67043 88.196,27.36007 88.196,26.977217 C88.196,26.594364 88.433055,26.284 88.725477,26.284 C89.017899,26.284 89.25495,26.594364 89.25495,26.977217 Z" id="path6_fill" fill="#FFFFFF"></path>
            <path d="M91.22095,26.977217 C91.22095,27.36007 90.983899,27.67043 90.691477,27.67043 C90.399055,27.67043 90.162,27.36007 90.162,26.977217 C90.162,26.594364 90.399055,26.284 90.691477,26.284 C90.983899,26.284 91.22095,26.594364 91.22095,26.977217 Z" id="path6_fill" fill="#FFFFFF"></path>
            <path d="M93.18795,26.977217 C93.18795,27.36007 92.950899,27.67043 92.658477,27.67043 C92.366055,27.67043 92.129,27.36007 92.129,26.977217 C92.129,26.594364 92.366055,26.284 92.658477,26.284 C92.950899,26.284 93.18795,26.594364 93.18795,26.977217 Z" id="path6_fill" fill="#FFFFFF"></path>
            <path d="M95.15495,26.977217 C95.15495,27.36007 94.917899,27.67043 94.625477,27.67043 C94.333055,27.67043 94.096,27.36007 94.096,26.977217 C94.096,26.594364 94.333055,26.284 94.625477,26.284 C94.917899,26.284 95.15495,26.594364 95.15495,26.977217 Z" id="path6_fill" fill="#FFFFFF"></path>
            <path d="M96.96995,26.977217 C96.96995,27.36007 96.732899,27.67043 96.440477,27.67043 C96.148055,27.67043 95.911,27.36007 95.911,26.977217 C95.911,26.594364 96.148055,26.284 96.440477,26.284 C96.732899,26.284 96.96995,26.594364 96.96995,26.977217 Z" id="path6_fill" fill="#FFFFFF"></path>
            <path d="M98.93695,26.977217 C98.93695,27.36007 98.699899,27.67043 98.407477,27.67043 C98.115055,27.67043 97.878,27.36007 97.878,26.977217 C97.878,26.594364 98.115055,26.284 98.407477,26.284 C98.699899,26.284 98.93695,26.594364 98.93695,26.977217 Z" id="path6_fill" fill="#FFFFFF"></path>
            <path d="M100.90295,26.977217 C100.90295,27.36007 100.665899,27.67043 100.373477,27.67043 C100.081055,27.67043 99.844,27.36007 99.844,26.977217 C99.844,26.594364 100.081055,26.284 100.373477,26.284 C100.665899,26.284 100.90295,26.594364 100.90295,26.977217 Z" id="path6_fill" fill="#FFFFFF"></path>
            <path d="M15.884,24.82 C15.884,24.267715 16.331715,23.82 16.884,23.82 L18.5147,23.82 C19.06699,23.82 19.5147,24.267715 19.5147,24.82 L19.5147,29.44407 C19.5147,29.99636 19.06699,30.44407 18.5147,30.44407 L16.884,30.44407 C16.331715,30.44407 15.884,29.99636 15.884,29.44407 L15.884,24.82 Z" id="path7_fill" fill="#BABABA"></path>
            <path d="M106.047,24.82 C106.047,24.267715 106.494715,23.82 107.047,23.82 L108.6777,23.82 C109.22999,23.82 109.6777,24.267715 109.6777,24.82 L109.6777,29.44407 C109.6777,29.99636 109.22999,30.44407 108.6777,30.44407 L107.047,30.44407 C106.494715,30.44407 106.047,29.99636 106.047,29.44407 L106.047,24.82 Z" id="path7_fill" fill="#06038D"></path>
            <path d="M9.37916,26.729669 C9.37916,26.228387 9.78553,25.822 10.28684,25.822 C10.78812,25.822 11.19449,26.228387 11.19449,26.729669 L11.19449,27.07099 C11.19449,27.57229 10.78812,27.97868 10.28684,27.97868 C9.78553,27.97868 9.37916,27.57229 9.37916,27.07099 L9.37916,26.729669 Z M9.0766,26.93885 L9.0766,26.80195 C9.0766,26.345819 8.70685,25.976053 8.25071,25.976053 C8.00702,25.976053 7.77579,26.083673 7.61887,26.27009 L7.1518,26.82496 C6.85004,27.18347 7.02216,27.73403 7.47437,27.85684 L7.47626,27.85734 C7.58457,27.88676 7.69633,27.90165 7.80857,27.90165 L8.11381,27.90165 C8.64554,27.90165 9.0766,27.47059 9.0766,26.93885 Z M6.88523,26.78901 L6.50889,27.23988 C6.36255,27.4152 6.145941,27.51653 5.917578,27.51653 L5.219,27.51653 L6.50486,25.976053 C6.92515,25.976053 7.15455,26.466379 6.88523,26.78901 Z" id="path8_fill" fill="#FFFFFF"></path>
        </g>
    </g>
</svg>