<?xml version="1.0" encoding="UTF-8" standalone="no"?>
<svg width="48px" height="82px" viewBox="0 0 48 82" version="1.1" xmlns="http://www.w3.org/2000/svg" xmlns:xlink="http://www.w3.org/1999/xlink">
    <!-- Generator: Sketch 43.2 (39069) - http://www.bohemiancoding.com/sketch -->
    <title>Group</title>
    <desc>Created with Sketch.</desc>
    <defs></defs>
    <g id="Page-1" stroke="none" stroke-width="1" fill="none" fill-rule="evenodd">
        <g id="Group" fill-rule="nonzero">
            <path d="M39.44974,71.0090013 C40.61268,71.0090013 41.60949,72.008167 41.60949,73.17386 L41.60949,79.83498 C41.60949,81.00067 40.61268,81.9998 39.44974,81.9998 C38.286805,81.9998 37.2900013,81.00067 37.2900013,79.83498 L37.2900013,73.17386 C37.2900013,71.924903 38.286805,71.0090013 39.44974,71.0090013 Z" id="path0_fill" fill="#0A0A7A"></path>
            <path d="M8.95974,71.0090013 C10.12268,71.0090013 11.11949,72.008167 11.11949,73.17386 L11.11949,79.83498 C11.11949,81.00067 10.12268,81.9998 8.95974,81.9998 C7.796805,81.9998 6.79999984,81.00067 6.79999984,79.83498 L6.79999984,73.17386 C6.79999984,71.924903 7.713738,71.0090013 8.95974,71.0090013 Z" id="path1_fill" fill="#0A0A7A"></path>
            <path d="M37.9952,73.0000027 L9.33,73.0000027 C8.225428,73.0000027 7.33,73.895431 7.33,75 C7.33,76.10457 8.225428,76.99999 9.33,76.99999 L37.9952,76.99999 C39.0998,76.99999 39.9952,76.10457 39.9952,75 C39.9952,73.895432 39.0998,73.0000027 37.9952,73.0000027 Z" id="path2_fill" fill="#0A0A7A"></path>
            <polygon id="path3_fill" fill="#090959" points="17.89121 4.3221 15.15 4.3221 15.15 22.89 17.89121 22.89"></polygon>
            <polygon id="path3_fill" fill="#090959" points="32.84121 4.3221 30.1 4.3221 30.1 22.89 32.84121 22.89"></polygon>
            <path d="M34.6641,0.1589 L13.14974,0.1589 C11.986805,0.1589 10.9899997,1.158067 10.9899997,2.32376 C10.9899997,3.48946 11.986805,4.48863 13.14974,4.48863 L34.6641,4.48863 C35.8271,4.48863 36.8239,3.48946 36.8239,2.32376 C36.8239,1.158067 35.8271,0.1589 34.6641,0.1589 Z" id="path4_fill" fill="#090959"></path>
            <path d="M38.6443,75 L9.18279,75 C4.13226,75 0,70.7285 0,65.5077 L0,17.49233 C0,12.27155 4.13226,7.9999994 9.18279,7.9999994 L38.6443,7.9999994 C43.6948,7.9999994 47.827,12.27155 47.827,17.49233 L47.827,65.5077 C47.827,70.7285 43.6948,75 38.6443,75 Z" id="path5_fill" fill="#3030D1"></path>
            <path d="M11.27,10 L36.5576,10 L36.5576,17.48994 C36.5576,24.4729 30.8968,30.1337 23.9138,30.1337 C16.93082,30.1337 11.27,24.4729 11.27,17.48994 L11.27,10 Z" id="path6_fill" fill-opacity="0.5" fill="#090959"></path>
            <path d="M20.51,28.2273 C20.51,27.675015 20.957715,27.2273 21.51,27.2273 L26.30119,27.2273 C26.85347,27.2273 27.30119,27.675015 27.30119,28.2273 L27.30119,30.88343 C27.30119,31.43571 26.85347,31.88343 26.30119,31.88343 L21.51,31.88343 C20.957715,31.88343 20.51,31.43571 20.51,30.88343 L20.51,28.2273 Z" id="path7_fill" fill="#4141E5"></path>
            <path d="M21.2,28.844773 C21.2,28.29891 21.64251,27.8564 22.188373,27.8564 L25.6533,27.8564 C26.19917,27.8564 26.64168,28.298911 26.64168,28.844774 C26.64168,29.39064 26.19917,29.83315 25.6533,29.83315 L22.188373,29.83315 C21.64251,29.83315 21.2,29.39064 21.2,28.844773 Z" id="path8_fill" fill="#090959"></path>
            <path d="M35,68.0000001 C32.24138,68.0000001 30.0000013,68.0868113 30.0000013,68.193656 L30.0000013,71.80634 C30.0000013,71.91319 32.24138,72 35,72 C37.75862,72 40,71.91319 40,71.80634 L40,68.186978 C40,68.0868114 37.75862,68.0000001 35,68.0000001 Z" id="path9_fill" fill="#090975"></path>
            <path d="M9,53.39023 C9,52.622426 9.622426,52 10.39023,52 L38.6098,52 C39.3776,52 40,52.622427 40,53.39023 C40,54.15803 39.3776,54.78045 38.6098,54.78045 L10.39023,54.78045 C9.622426,54.78045 9,54.15803 9,53.39023 Z" id="path10_fill" fill-opacity="0.5" fill="#040483"></path>
            <path d="M9,47.94473 C9,47.176926 9.622426,46.5545 10.39023,46.5545 L38.6098,46.5545 C39.3776,46.5545 40,47.176927 40,47.94473 C40,48.71253 39.3776,49.33495 38.6098,49.33495 L10.39023,49.33495 C9.622426,49.33495 9,48.71253 9,47.94473 Z" id="path10_fill" fill-opacity="0.5" fill="#040483"></path>
            <path d="M9,58.50003 C9,57.732226 9.622426,57.1098 10.39023,57.1098 L38.6098,57.1098 C39.3776,57.1098 40,57.732227 40,58.50003 C40,59.26783 39.3776,59.89025 38.6098,59.89025 L10.39023,59.89025 C9.622426,59.89025 9,59.26783 9,58.50003 Z" id="path10_fill" fill-opacity="0.5" fill="#040483"></path>
            <path d="M9,63.94513 C9,63.177326 9.622426,62.5549 10.39023,62.5549 L38.6098,62.5549 C39.3776,62.5549 40,63.177327 40,63.94513 C40,64.71293 39.3776,65.33535 38.6098,65.33535 L10.39023,65.33535 C9.622426,65.33535 9,64.71293 9,63.94513 Z" id="path10_fill" fill-opacity="0.5" fill="#040483"></path>
        </g>
    </g>
</svg>