<svg width="56" height="28" viewBox="0 0 56 28" xmlns="http://www.w3.org/2000/svg" xmlns:xlink="http://www.w3.org/1999/xlink" xmlns:figma="http://www.figma.com/figma/ns"><title>Small Personal Item icon</title><desc>Created using Figma</desc><g figma:type="instance"><use xlink:href="#a" transform="translate(36.47)" fill="#090959" figma:type="vector"/><use xlink:href="#b" transform="translate(0 5.225)" fill="#1111B7" figma:type="vector"/><use xlink:href="#c" transform="translate(4 10.25)" fill="#090959" figma:type="vector"/><use xlink:href="#d" transform="translate(32.72 11.306)" fill="#4141E5" figma:type="vector"/><use xlink:href="#e" transform="translate(4.38 22.042)" fill="#4141E5" figma:type="vector"/></g><defs><path id="a" d="M14.8687 21.2357c-.7625 0-1.4614-.2482-2.0968-.6826-2.0334-1.4894-2.3511-4.9026-2.7323-8.2537-.19066-1.9238-.44482-4.1579-1.0167-4.84053-2.79583-3.16495-6.7354-.55852-6.86249-.43441l-.50833-.74469v.12411L.7e-7 5.47302C1.58854 2.74247 6.29062-1.72569 12.4541.694565 16.3302 2.24601 20.1427 8.32767 19.4437 15.4643c-.3177 3.227-1.6521 5.2749-3.6854 5.6473-.2542.062-.5719.1241-.8896.1241zM5.71874 4.04569c1.65208 0 3.36771.55852 4.82916 2.17202.9531 1.11704 1.2073 3.28906 1.4615 5.83339.2541 2.6685.5718 5.9576 1.9697 6.9505.2542.1862.699.3724 1.525.2482 1.1438-.2482 1.9063-1.7376 2.1605-3.9717.4447-4.8405-1.8427-11.29447-5.8459-12.84592-4.00309-1.551441-6.98954.37235-8.64162 2.04791.7625-.24823 1.65208-.4344 2.54166-.4344z"/><path id="b" d="M37.2354-.4e-7H2.54166C1.14375-.4e-7 0 1.11704 0 2.48231V20.2929c0 1.3653 1.14375 2.4823 2.54166 2.4823H37.2354c1.3979 0 2.5416-1.117 2.5416-2.4823V2.54437C39.8406 1.1791 38.6333-.4e-7 37.2354-.4e-7z"/><path id="c" d="M31.9614 0H0v1.55145h31.9614V0z"/><path id="d" d="M1.90625.7e-7L3.81249 4.77845 0 4.65434 1.90625.7e-7z"/><path id="e" d="M5.84583 0H1.08021C.444791 0 e-8.496463e-8 1.05498e-8 1.67556.508333 2.17202 1.08021 2.17202h4.76562c.63541 0 1.0802-.49646 1.0802-1.11704C6.92603.496463 6.4177 0 5.84583 0z"/></defs></svg>
