<?xml version="1.0" encoding="UTF-8" standalone="no"?>
<svg width="17px" height="13px" viewBox="0 0 17 13" version="1.1" xmlns="http://www.w3.org/2000/svg" xmlns:xlink="http://www.w3.org/1999/xlink">
    <!-- Generator: Sketch 43.2 (39069) - http://www.bohemiancoding.com/sketch -->
    <g stroke="none" fill="#A7A7A7">
        <path d="M10.812,10.25 C10.812,10.52614 11.03586,10.75 11.312,10.75 C11.5881,10.75 11.812,10.52614 11.812,10.25 L10.812,10.25 Z M1.312,3.99938 L1.011694,3.599605 C0.859684,3.713794 0.785588,3.90431 0.820505,4.0912 C0.855421,4.27809 0.993308,4.429 1.176293,4.48061 L1.312,3.99938 Z M10.1795,6.5 L10.31517,6.98124 C10.53066,6.92049 10.67949,6.7239 10.6795,6.50002 C10.67951,6.27613 10.53069,6.07953 10.31521,6.01877 L10.1795,6.5 Z M1.312,9 L1.176325,8.51876 C0.993264,8.57037 0.855337,8.72137 0.820472,8.90834 C0.785607,9.09532 0.859843,9.28588 1.012,9.4 L1.312,9 Z M11.812,2.75 C11.812,2.473858 11.5881,2.25 11.312,2.25 C11.03586,2.25 10.812,2.473858 10.812,2.75 L11.812,2.75 Z M11.812,10.25 C11.812,6.17698 8.51002,2.875 4.437,2.875 L4.437,3.875 C7.95773,3.875 10.812,6.72927 10.812,10.25 L11.812,10.25 Z M4.437,2.875 C4.06323,2.875493 3.37058,2.937112 2.72277,3.047106 C2.39857,3.102465 2.061817,3.174547 1.781223,3.256409 C1.508986,3.336188 1.2184431,3.444296 1.011694,3.599605 L1.612306,4.39915 C1.666807,4.3582 1.809624,4.29014 2.062445,4.21605 C2.306909,4.14405 2.58692,4.08457 2.89076,4.03289 C3.49905,3.92883 4.10765,3.87451 4.437,3.875 L4.437,2.875 Z M1.176293,4.48061 L10.04379,6.98123 L10.31521,6.01877 L1.447707,3.518144 L1.176293,4.48061 Z M10.04382,6.01876 L1.176325,8.51876 L1.447675,9.48124 L10.31517,6.98124 L10.04382,6.01876 Z M1.012,9.4 C1.2186166,9.55496 1.508984,9.66299 1.781174,9.74279 C2.061719,9.82467 2.3984,9.89684 2.72259,9.95232 C3.37037,10.06255 4.06311,10.1245 4.437,10.125 L4.437,9.125 C4.10776,9.1255 3.49926,9.07089 2.89094,8.96659 C2.58708,8.9148 2.307008,8.85522 2.062494,8.78317 C1.809625,8.70904 1.666633,8.64097 1.612,8.6 L1.012,9.4 Z M4.437,10.125 C8.51002,10.125 11.812,6.82302 11.812,2.75 L10.812,2.75 C10.812,6.27073 7.95773,9.125 4.437,9.125 L4.437,10.125 Z" id="path1_stroke"></path>
        <path d="M13.5000005,4.44000011 C14.4333617,4.44000011 15.1900005,3.68336131 15.1900005,2.75000006 C15.1900005,1.8166388 14.4333617,1.06 13.5000005,1.06 C12.5666392,1.06 11.8100004,1.8166388 11.8100004,2.75000006 C11.8100004,3.68336131 12.5666392,4.44000011 13.5000005,4.44000011 Z M13.5000005,5.44000011 C12.0143545,5.44000011 10.8100004,4.23564606 10.8100004,2.75000006 C10.8100004,1.26435405 12.0143545,0.0599999987 13.5000005,0.0599999987 C14.9856465,0.0599999987 16.1900005,1.26435405 16.1900005,2.75000006 C16.1900005,4.23564606 14.9856465,5.44000011 13.5000005,5.44000011 Z" id="Oval"></path>
        <path d="M13.5000005,11.9400001 C14.4333617,11.9400001 15.1900005,11.1833613 15.1900005,10.25 C15.1900005,9.31663874 14.4333617,8.55999994 13.5000005,8.55999994 C12.5666392,8.55999994 11.8100004,9.31663874 11.8100004,10.25 C11.8100004,11.1833613 12.5666392,11.9400001 13.5000005,11.9400001 Z M13.5000005,12.9400001 C12.0143545,12.9400001 10.8100004,11.735646 10.8100004,10.25 C10.8100004,8.76435399 12.0143545,7.55999994 13.5000005,7.55999994 C14.9856465,7.55999994 16.1900005,8.76435399 16.1900005,10.25 C16.1900005,11.735646 14.9856465,12.9400001 13.5000005,12.9400001 Z" id="Oval"></path>
    </g>
</svg>